<svg xmlns="http://www.w3.org/2000/svg" width="64" height="64" viewBox="0 0 64 64" fill="none">
<defs>
  <linearGradient id="gradPurple" x1="0" y1="0" x2="1" y2="1">
    <stop offset="0%" stop-color="#7C6CFF"/>
    <stop offset="100%" stop-color="#4E67FF"/>
  </linearGradient>
  <linearGradient id="gradSoftPurple" x1="0" y1="0" x2="1" y2="1">
    <stop offset="0%" stop-color="#F5F1FF"/>
    <stop offset="100%" stop-color="#EFEAFF"/>
  </linearGradient>
  <linearGradient id="gradSoftBlue" x1="0" y1="0" x2="1" y2="1">
    <stop offset="0%" stop-color="#F3F7FF"/>
    <stop offset="100%" stop-color="#EDF2FF"/>
  </linearGradient>
  <linearGradient id="gradSoftGreen" x1="0" y1="0" x2="1" y2="1">
    <stop offset="0%" stop-color="#F0FBF4"/>
    <stop offset="100%" stop-color="#E8F9EF"/>
  </linearGradient>
  <linearGradient id="gradSoftOrange" x1="0" y1="0" x2="1" y2="1">
    <stop offset="0%" stop-color="#FFF8EF"/>
    <stop offset="100%" stop-color="#FFF2DF"/>
  </linearGradient>
  <filter id="cardShadow" x="-20%" y="-20%" width="140%" height="160%">
    <feDropShadow dx="0" dy="8" stdDeviation="16" flood-color="#1C2250" flood-opacity="0.06"/>
  </filter>
  <filter id="softShadow" x="-50%" y="-50%" width="200%" height="200%">
    <feDropShadow dx="0" dy="2" stdDeviation="4" flood-color="#2F3B72" flood-opacity="0.12"/>
  </filter>
</defs>
<g id="icon">
<path d="M19 10H37L47 20V50C47 52.2 45.2 54 43 54H19C16.8 54 15 52.2 15 50V14C15 11.8 16.8 10 19 10Z" fill="url(#gradSoftBlue)" stroke="#4E8FFF" stroke-width="2.5"/>
<path d="M37 10V20H47" stroke="#4E8FFF" stroke-width="2.5" stroke-linejoin="round"/>
<path d="M23 28H39M23 35H39M23 42H33" stroke="#4E8FFF" stroke-width="2.5" stroke-linecap="round"/>
</g>
</svg>
